<svg id="visual" viewBox="0 0 900 600" width="900" height="600" xmlns="http://www.w3.org/2000/svg" xmlns:xlink="http://www.w3.org/1999/xlink" version="1.1"><rect x="0" y="0" width="900" height="600" fill="#F5F7F8"></rect><defs><linearGradient id="grad1_0" x1="33.3%" y1="0%" x2="100%" y2="100%"><stop offset="20%" stop-color="#092635" stop-opacity="1"></stop><stop offset="80%" stop-color="#092635" stop-opacity="1"></stop></linearGradient></defs><defs><linearGradient id="grad1_1" x1="33.3%" y1="0%" x2="100%" y2="100%"><stop offset="20%" stop-color="#092635" stop-opacity="1"></stop><stop offset="80%" stop-color="#415461" stop-opacity="1"></stop></linearGradient></defs><defs><linearGradient id="grad1_2" x1="33.3%" y1="0%" x2="100%" y2="100%"><stop offset="20%" stop-color="#798790" stop-opacity="1"></stop><stop offset="80%" stop-color="#415461" stop-opacity="1"></stop></linearGradient></defs><defs><linearGradient id="grad1_3" x1="33.3%" y1="0%" x2="100%" y2="100%"><stop offset="20%" stop-color="#798790" stop-opacity="1"></stop><stop offset="80%" stop-color="#b5bec2" stop-opacity="1"></stop></linearGradient></defs><defs><linearGradient id="grad1_4" x1="33.3%" y1="0%" x2="100%" y2="100%"><stop offset="20%" stop-color="#f5f7f8" stop-opacity="1"></stop><stop offset="80%" stop-color="#b5bec2" stop-opacity="1"></stop></linearGradient></defs><defs><linearGradient id="grad2_0" x1="0%" y1="0%" x2="66.7%" y2="100%"><stop offset="20%" stop-color="#092635" stop-opacity="1"></stop><stop offset="80%" stop-color="#092635" stop-opacity="1"></stop></linearGradient></defs><defs><linearGradient id="grad2_1" x1="0%" y1="0%" x2="66.7%" y2="100%"><stop offset="20%" stop-color="#415461" stop-opacity="1"></stop><stop offset="80%" stop-color="#092635" stop-opacity="1"></stop></linearGradient></defs><defs><linearGradient id="grad2_2" x1="0%" y1="0%" x2="66.7%" y2="100%"><stop offset="20%" stop-color="#415461" stop-opacity="1"></stop><stop offset="80%" stop-color="#798790" stop-opacity="1"></stop></linearGradient></defs><defs><linearGradient id="grad2_3" x1="0%" y1="0%" x2="66.7%" y2="100%"><stop offset="20%" stop-color="#b5bec2" stop-opacity="1"></stop><stop offset="80%" stop-color="#798790" stop-opacity="1"></stop></linearGradient></defs><defs><linearGradient id="grad2_4" x1="0%" y1="0%" x2="66.7%" y2="100%"><stop offset="20%" stop-color="#b5bec2" stop-opacity="1"></stop><stop offset="80%" stop-color="#f5f7f8" stop-opacity="1"></stop></linearGradient></defs><g transform="translate(900, 0)"><path d="M0 243.4C-23.8 238.9 -47.6 234.4 -74.5 229.2C-101.3 224 -131.1 218 -143.1 196.9C-155 175.7 -149 139.4 -162.6 118.1C-176.3 96.9 -209.6 90.7 -226.4 73.5C-243.1 56.4 -243.2 28.2 -243.4 0L0 0Z" fill="#d4dadd"></path><path d="M0 194.7C-19.1 191.1 -38.1 187.5 -59.6 183.4C-81 179.2 -104.9 174.4 -114.4 157.5C-124 140.6 -119.2 111.5 -130.1 94.5C-141 77.5 -167.7 72.6 -181.1 58.8C-194.5 45.1 -194.6 22.5 -194.7 0L0 0Z" fill="#96a2a9"></path><path d="M0 146C-14.3 143.3 -28.6 140.7 -44.7 137.5C-60.8 134.4 -78.7 130.8 -85.8 118.1C-93 105.4 -89.4 83.6 -97.6 70.9C-105.8 58.1 -125.8 54.4 -135.8 44.1C-145.9 33.8 -145.9 16.9 -146 0L0 0Z" fill="#5c6d78"></path><path d="M0 97.3C-9.5 95.6 -19.1 93.8 -29.8 91.7C-40.5 89.6 -52.5 87.2 -57.2 78.8C-62 70.3 -59.6 55.8 -65 47.3C-70.5 38.8 -83.8 36.3 -90.5 29.4C-97.2 22.5 -97.3 11.3 -97.3 0L0 0Z" fill="#263c4a"></path><path d="M0 48.7C-4.8 47.8 -9.5 46.9 -14.9 45.8C-20.3 44.8 -26.2 43.6 -28.6 39.4C-31 35.1 -29.8 27.9 -32.5 23.6C-35.3 19.4 -41.9 18.1 -45.3 14.7C-48.6 11.3 -48.6 5.6 -48.7 0L0 0Z" fill="#092635"></path></g><g transform="translate(0, 600)"><path d="M0 -243.4C26.7 -242.5 53.3 -241.7 75.2 -231.5C97.1 -221.3 114.1 -201.8 135.2 -186.1C156.2 -170.4 181.3 -158.5 190.1 -138.1C199 -117.7 191.6 -88.7 197.8 -64.3C204 -39.8 223.7 -19.9 243.4 0L0 0Z" fill="#d4dadd"></path><path d="M0 -194.7C21.3 -194 42.7 -193.3 60.2 -185.2C77.7 -177 91.3 -161.4 108.2 -148.9C125 -136.3 145 -126.8 152.1 -110.5C159.2 -94.2 153.3 -71 158.3 -51.4C163.2 -31.9 178.9 -15.9 194.7 0L0 0Z" fill="#96a2a9"></path><path d="M0 -146C16 -145.5 32 -145 45.1 -138.9C58.2 -132.8 68.5 -121.1 81.1 -111.6C93.7 -102.2 108.8 -95.1 114.1 -82.9C119.4 -70.6 115 -53.2 118.7 -38.6C122.4 -23.9 134.2 -11.9 146 0L0 0Z" fill="#5c6d78"></path><path d="M0 -97.3C10.7 -97 21.3 -96.7 30.1 -92.6C38.8 -88.5 45.7 -80.7 54.1 -74.4C62.5 -68.2 72.5 -63.4 76 -55.3C79.6 -47.1 76.7 -35.5 79.1 -25.7C81.6 -15.9 89.5 -8 97.3 0L0 0Z" fill="#263c4a"></path><path d="M0 -48.7C5.3 -48.5 10.7 -48.3 15 -46.3C19.4 -44.3 22.8 -40.4 27 -37.2C31.2 -34.1 36.3 -31.7 38 -27.6C39.8 -23.5 38.3 -17.7 39.6 -12.9C40.8 -8 44.7 -4 48.7 0L0 0Z" fill="#092635"></path></g></svg>