<svg id="visual" viewBox="0 0 900 600" width="900" height="600" xmlns="http://www.w3.org/2000/svg" xmlns:xlink="http://www.w3.org/1999/xlink" version="1.1"><path d="M0 61L11.5 59C23 57 46 53 69 55C92 57 115 65 138.2 66C161.3 67 184.7 61 207.8 60C231 59 254 63 277 68C300 73 323 79 346 77C369 75 392 65 415.2 61C438.3 57 461.7 59 484.8 63C508 67 531 73 554 79C577 85 600 91 623 91C646 91 669 85 692.2 78C715.3 71 738.7 63 761.8 65C785 67 808 79 831 77C854 75 877 59 888.5 51L900 43L900 0L888.5 0C877 0 854 0 831 0C808 0 785 0 761.8 0C738.7 0 715.3 0 692.2 0C669 0 646 0 623 0C600 0 577 0 554 0C531 0 508 0 484.8 0C461.7 0 438.3 0 415.2 0C392 0 369 0 346 0C323 0 300 0 277 0C254 0 231 0 207.8 0C184.7 0 161.3 0 138.2 0C115 0 92 0 69 0C46 0 23 0 11.5 0L0 0Z" fill="#ffffff"></path><path d="M0 127L11.5 133C23 139 46 151 69 155C92 159 115 155 138.2 165C161.3 175 184.7 199 207.8 194C231 189 254 155 277 145C300 135 323 149 346 152C369 155 392 147 415.2 153C438.3 159 461.7 179 484.8 189C508 199 531 199 554 204C577 209 600 219 623 223C646 227 669 225 692.2 225C715.3 225 738.7 227 761.8 216C785 205 808 181 831 166C854 151 877 145 888.5 142L900 139L900 41L888.5 49C877 57 854 73 831 75C808 77 785 65 761.8 63C738.7 61 715.3 69 692.2 76C669 83 646 89 623 89C600 89 577 83 554 77C531 71 508 65 484.8 61C461.7 57 438.3 55 415.2 59C392 63 369 73 346 75C323 77 300 71 277 66C254 61 231 57 207.8 58C184.7 59 161.3 65 138.2 64C115 63 92 55 69 53C46 51 23 55 11.5 57L0 59Z" fill="#fbfbfb"></path><path d="M0 187L11.5 203C23 219 46 251 69 259C92 267 115 251 138.2 249C161.3 247 184.7 259 207.8 251C231 243 254 215 277 215C300 215 323 243 346 249C369 255 392 239 415.2 239C438.3 239 461.7 255 484.8 271C508 287 531 303 554 312C577 321 600 323 623 325C646 327 669 329 692.2 323C715.3 317 738.7 303 761.8 287C785 271 808 253 831 245C854 237 877 239 888.5 240L900 241L900 137L888.5 140C877 143 854 149 831 164C808 179 785 203 761.8 214C738.7 225 715.3 223 692.2 223C669 223 646 225 623 221C600 217 577 207 554 202C531 197 508 197 484.8 187C461.7 177 438.3 157 415.2 151C392 145 369 153 346 150C323 147 300 133 277 143C254 153 231 187 207.8 192C184.7 197 161.3 173 138.2 163C115 153 92 157 69 153C46 149 23 137 11.5 131L0 125Z" fill="#eeeeee"></path><path d="M0 361L11.5 382C23 403 46 445 69 446C92 447 115 407 138.2 399C161.3 391 184.7 415 207.8 412C231 409 254 379 277 372C300 365 323 381 346 405C369 429 392 461 415.2 465C438.3 469 461.7 445 484.8 433C508 421 531 421 554 425C577 429 600 437 623 449C646 461 669 477 692.2 465C715.3 453 738.7 413 761.8 404C785 395 808 417 831 419C854 421 877 403 888.5 394L900 385L900 239L888.5 238C877 237 854 235 831 243C808 251 785 269 761.8 285C738.7 301 715.3 315 692.2 321C669 327 646 325 623 323C600 321 577 319 554 310C531 301 508 285 484.8 269C461.7 253 438.3 237 415.2 237C392 237 369 253 346 247C323 241 300 213 277 213C254 213 231 241 207.8 249C184.7 257 161.3 245 138.2 247C115 249 92 265 69 257C46 249 23 217 11.5 201L0 185Z" fill="#fbfbfb"></path><path d="M0 601L11.5 601C23 601 46 601 69 601C92 601 115 601 138.2 601C161.3 601 184.7 601 207.8 601C231 601 254 601 277 601C300 601 323 601 346 601C369 601 392 601 415.2 601C438.3 601 461.7 601 484.8 601C508 601 531 601 554 601C577 601 600 601 623 601C646 601 669 601 692.2 601C715.3 601 738.7 601 761.8 601C785 601 808 601 831 601C854 601 877 601 888.5 601L900 601L900 383L888.5 392C877 401 854 419 831 417C808 415 785 393 761.8 402C738.7 411 715.3 451 692.2 463C669 475 646 459 623 447C600 435 577 427 554 423C531 419 508 419 484.8 431C461.7 443 438.3 467 415.2 463C392 459 369 427 346 403C323 379 300 363 277 370C254 377 231 407 207.8 410C184.7 413 161.3 389 138.2 397C115 405 92 445 69 444C46 443 23 401 11.5 380L0 359Z" fill="#ffffff"></path></svg>