<svg id="visual" viewBox="0 0 900 600" width="900" height="600" xmlns="http://www.w3.org/2000/svg" xmlns:xlink="http://www.w3.org/1999/xlink" version="1.1"><rect x="0" y="0" width="900" height="600" fill="#F5F7F8"></rect><path d="M0 351L129 406L257 404L386 356L514 445L643 373L771 358L900 448L900 601L771 601L643 601L514 601L386 601L257 601L129 601L0 601Z" fill="#688484"></path><path d="M0 457L129 465L257 397L386 405L514 408L643 440L771 454L900 478L900 601L771 601L643 601L514 601L386 601L257 601L129 601L0 601Z" fill="#4d6b70"></path><path d="M0 508L129 473L257 498L386 510L514 478L643 499L771 507L900 471L900 601L771 601L643 601L514 601L386 601L257 601L129 601L0 601Z" fill="#35535c"></path><path d="M0 497L129 509L257 526L386 506L514 496L643 487L771 531L900 489L900 601L771 601L643 601L514 601L386 601L257 601L129 601L0 601Z" fill="#1f3c48"></path><path d="M0 540L129 565L257 562L386 533L514 552L643 539L771 537L900 536L900 601L771 601L643 601L514 601L386 601L257 601L129 601L0 601Z" fill="#092635"></path></svg>